<?xml version="1.0" encoding="UTF-8"?>
<svg width="20px" height="23px" viewBox="0 0 20 23" version="1.1" xmlns="http://www.w3.org/2000/svg" xmlns:xlink="http://www.w3.org/1999/xlink">
    <title>icn_person</title>
    <g id="Page-2" stroke="none" stroke-width="1" fill="none" fill-rule="evenodd">
        <g id="FrontEndJr-Test_Result_Mobile" transform="translate(-285.000000, -20.000000)" fill="#F6BC25" fill-rule="nonzero">
            <g id="Header">
                <path d="M295,31.5 C293.958334,31.5 292.998512,31.2454425 292.120536,30.7363281 C291.242559,30.2272138 290.550595,29.5309247 290.044643,28.6474609 C289.538691,27.7639972 289.285714,26.7981769 289.285714,25.75 C289.285714,24.7018231 289.538691,23.7360028 290.044643,22.8525391 C290.550595,21.9690753 291.242559,21.2727862 292.120536,20.7636719 C292.998512,20.2545575 293.958334,20 295,20 C296.041666,20 297.001488,20.2545575 297.879464,20.7636719 C298.757441,21.2727862 299.449405,21.9690753 299.955357,22.8525391 C300.461309,23.7360028 300.714286,24.7018231 300.714286,25.75 C300.714286,26.7981769 300.461309,27.7639972 299.955357,28.6474609 C299.449405,29.5309247 298.757441,30.2272138 297.879464,30.7363281 C297.001488,31.2454425 296.041666,31.5 295,31.5 Z M299.017857,32.9375 C300.089286,32.9375 301.086309,33.2070312 302.008929,33.7460938 C302.931548,34.2851562 303.660714,35.01888 304.196429,35.9472656 C304.732143,36.8756513 305,37.8789062 305,38.9570312 L305,40.84375 C305,41.4427081 304.791666,41.9518231 304.375,42.3710938 C303.958334,42.7903644 303.452381,43 302.857143,43 L287.142857,43 C286.547619,43 286.041666,42.7903644 285.625,42.3710938 C285.208334,41.9518231 285,41.4427081 285,40.84375 L285,38.9570312 C285,37.8789062 285.267857,36.8756513 285.803571,35.9472656 C286.339286,35.01888 287.068452,34.2851562 287.991071,33.7460938 C288.913691,33.2070312 289.910714,32.9375 290.982143,32.9375 L291.741071,32.9375 C292.782738,33.4166669 293.869048,33.65625 295,33.65625 C296.130952,33.65625 297.217262,33.4166669 298.258929,32.9375 L299.017857,32.9375 Z" id="icn_person"></path>
            </g>
        </g>
    </g>
</svg>