<?xml version="1.0" encoding="UTF-8"?>
<svg width="23px" height="23px" viewBox="0 0 23 23" version="1.1" xmlns="http://www.w3.org/2000/svg" xmlns:xlink="http://www.w3.org/1999/xlink">
    <title>icn_search</title>
    <g id="Page-2" stroke="none" stroke-width="1" fill="none" fill-rule="evenodd">
        <g id="FrontEndJr-Test_Result_Mobile" transform="translate(-237.000000, -20.000000)" fill="#F6BC25" fill-rule="nonzero">
            <g id="Header">
                <path d="M259.685547,39.9003906 C259.895183,40.1100263 260,40.3645831 260,40.6640625 C260,40.9635419 259.895183,41.2180987 259.685547,41.4277344 L258.427734,42.6855469 C258.218099,42.8951825 257.963542,43 257.664062,43 C257.364583,43 257.110026,42.8951825 256.900391,42.6855469 L252.408203,38.1933594 C252.198567,37.9837237 252.09375,37.7291669 252.09375,37.4296875 L252.09375,36.7109375 C250.416667,38.0286456 248.5,38.6875 246.34375,38.6875 C244.636719,38.6875 243.07194,38.2682294 241.649414,37.4296875 C240.226888,36.5911456 239.096354,35.4606122 238.257812,34.0380859 C237.419271,32.6155597 237,31.0507812 237,29.34375 C237,27.6367188 237.419271,26.0719403 238.257812,24.6494141 C239.096354,23.2268878 240.226888,22.0963544 241.649414,21.2578125 C243.07194,20.4192706 244.636719,20 246.34375,20 C248.050781,20 249.61556,20.4192706 251.038086,21.2578125 C252.460612,22.0963544 253.591146,23.2268878 254.429688,24.6494141 C255.268229,26.0719403 255.6875,27.6367188 255.6875,29.34375 C255.6875,31.5 255.028646,33.4166669 253.710938,35.09375 L254.429688,35.09375 C254.729167,35.09375 254.983724,35.1985675 255.193359,35.4082031 L259.685547,39.9003906 Z M246.34375,35.09375 C247.391927,35.09375 248.357747,34.8391925 249.241211,34.3300781 C250.124675,33.8209638 250.820964,33.1246747 251.330078,32.2412109 C251.839192,31.3577472 252.09375,30.3919269 252.09375,29.34375 C252.09375,28.2955731 251.839192,27.3297528 251.330078,26.4462891 C250.820964,25.5628253 250.124675,24.8665362 249.241211,24.3574219 C248.357747,23.8483075 247.391927,23.59375 246.34375,23.59375 C245.295573,23.59375 244.329753,23.8483075 243.446289,24.3574219 C242.562825,24.8665362 241.866536,25.5628253 241.357422,26.4462891 C240.848308,27.3297528 240.59375,28.2955731 240.59375,29.34375 C240.59375,30.3919269 240.848308,31.3577472 241.357422,32.2412109 C241.866536,33.1246747 242.562825,33.8209638 243.446289,34.3300781 C244.329753,34.8391925 245.295573,35.09375 246.34375,35.09375 Z" id="icn_search"></path>
            </g>
        </g>
    </g>
</svg>