<?xml version="1.0" encoding="UTF-8"?>
<svg width="15px" height="19px" viewBox="0 0 15 19" version="1.1" xmlns="http://www.w3.org/2000/svg" xmlns:xlink="http://www.w3.org/1999/xlink">
    <title>lock</title>
    <defs>
        <linearGradient x1="196.826172%" y1="66.3085938%" x2="-55.4199219%" y2="66.3085938%" id="linearGradient-1">
            <stop stop-color="#F2DA56" offset="0%"></stop>
            <stop stop-color="#F1F1F1" offset="100%"></stop>
        </linearGradient>
    </defs>
    <g id="Page-2" stroke="none" stroke-width="1" fill="none" fill-rule="evenodd">
        <g id="FrontEndJr-Test_Result_Mobile" transform="translate(-25.000000, -1206.000000)">
            <g id="Section1" transform="translate(0.000000, 894.000000)">
                <g id="lock" transform="translate(25.000000, 312.000000)">
                    <path d="M7.5,1.02272727 C8.69691581,1.02272727 9.78051971,1.50787326 10.5648947,2.2922482 C11.3492696,3.07662315 11.8344156,4.16022704 11.8344156,5.35714286 L11.8344156,5.35714286 L11.8344156,9.53282828 L3.16558442,9.53282828 L3.16558442,5.35714286 C3.16558442,4.16022704 3.65073041,3.07662315 4.43510535,2.2922482 C5.21948029,1.50787326 6.30308419,1.02272727 7.5,1.02272727 Z" id="Rectangle-9" stroke="#F7C031" stroke-width="2.04545455"></path>
                    <path d="M2.04545455,6.33333333 L12.9545455,6.33333333 C14.0842188,6.33333333 15,7.24911453 15,8.37878788 L15,16.9545455 C15,18.0842188 14.0842188,19 12.9545455,19 L2.04545455,19 C0.915781194,19 6.97607368e-16,18.0842188 0,16.9545455 L0,8.37878788 C-5.82434295e-16,7.24911453 0.915781194,6.33333333 2.04545455,6.33333333 Z" id="Rectangle-8" fill="#F7C02F"></path>
                    <path d="M2.04545455,6.33333333 L4.28571429,6.33333333 L4.28571429,6.33333333 L4.28571429,19 L2.04545455,19 C0.915781194,19 1.38345085e-16,18.0842188 0,16.9545455 L0,8.37878788 C-1.38345085e-16,7.24911453 0.915781194,6.33333333 2.04545455,6.33333333 Z" id="Rectangle-8" fill="url(#linearGradient-1)" style="mix-blend-mode: multiply;"></path>
                </g>
            </g>
        </g>
    </g>
</svg>